<?xml version="1.0" encoding="UTF-8" standalone="no"?>
<!-- Created with Inkscape (http://www.inkscape.org/) -->
<svg
   xmlns:dc="http://purl.org/dc/elements/1.1/"
   xmlns:cc="http://creativecommons.org/ns#"
   xmlns:rdf="http://www.w3.org/1999/02/22-rdf-syntax-ns#"
   xmlns:svg="http://www.w3.org/2000/svg"
   xmlns="http://www.w3.org/2000/svg"
   xmlns:xlink="http://www.w3.org/1999/xlink"
   xmlns:sodipodi="http://sodipodi.sourceforge.net/DTD/sodipodi-0.dtd"
   xmlns:inkscape="http://www.inkscape.org/namespaces/inkscape"
   width="396"
   height="761.57001"
   id="svg2"
   sodipodi:version="0.32"
   inkscape:version="0.46"
   sodipodi:docname="ds18b20_wiring.svg"
   inkscape:output_extension="org.inkscape.output.svg.inkscape"
   version="1.0">
  <defs
     id="defs4">
    <inkscape:perspective
       sodipodi:type="inkscape:persp3d"
       inkscape:vp_x="0 : 526.18109 : 1"
       inkscape:vp_y="0 : 1000 : 0"
       inkscape:vp_z="744.09448 : 526.18109 : 1"
       inkscape:persp3d-origin="372.04724 : 350.78739 : 1"
       id="perspective10" />
  </defs>
  <sodipodi:namedview
     id="base"
     pagecolor="#ffffff"
     bordercolor="#666666"
     borderopacity="1.0"
     gridtolerance="10000"
     guidetolerance="10"
     objecttolerance="10"
     inkscape:pageopacity="0.0"
     inkscape:pageshadow="2"
     inkscape:zoom="0.70710678"
     inkscape:cx="386.29708"
     inkscape:cy="387.50357"
     inkscape:document-units="px"
     inkscape:current-layer="layer1"
     showgrid="false"
     inkscape:window-width="1280"
     inkscape:window-height="744"
     inkscape:window-x="-4"
     inkscape:window-y="-4"
     borderlayer="false" />
  <metadata
     id="metadata7">
    <rdf:RDF>
      <cc:Work
         rdf:about="">
        <dc:format>image/svg+xml</dc:format>
        <dc:type
           rdf:resource="http://purl.org/dc/dcmitype/StillImage" />
      </cc:Work>
    </rdf:RDF>
  </metadata>
  <g
     inkscape:label="Layer 1"
     inkscape:groupmode="layer"
     id="layer1"
     transform="translate(-82.5,-162.29076)">
    <rect
       style="fill:#000000;fill-opacity:1;stroke:none;stroke-width:3;stroke-opacity:1"
       id="rect3177"
       width="22"
       height="21"
       x="261"
       y="761.36218" />
    <g
       id="g3255"
       transform="translate(10,4)">
      <use
         height="1052.3622"
         width="744.09448"
         transform="translate(66.5,-1)"
         id="use3163"
         xlink:href="#use3161"
         y="0"
         x="0" />
      <use
         style="stroke:#ffffff"
         height="1052.3622"
         width="744.09448"
         transform="translate(66.5,2)"
         id="use3161"
         xlink:href="#rect3159"
         y="0"
         x="0" />
      <rect
         y="284.36218"
         x="235"
         height="243"
         width="15"
         id="rect3159"
         style="fill:#000000;fill-opacity:1;stroke:#ffffff;stroke-width:3;stroke-opacity:1" />
      <rect
         y="163.79076"
         x="224.57143"
         height="145.71428"
         width="168.57143"
         id="rect2383"
         style="fill:#000000;fill-opacity:1;stroke:#ffffff;stroke-width:3;stroke-opacity:1" />
      <text
         id="text2385"
         y="248.10101"
         x="239.83371"
         style="font-size:32px;font-style:normal;font-weight:normal;fill:#ffffff;fill-opacity:1;stroke:none;stroke-width:1px;stroke-linecap:butt;stroke-linejoin:miter;stroke-opacity:1;font-family:Bitstream Vera Sans"
         xml:space="preserve"><tspan
           y="248.10101"
           x="239.83371"
           id="tspan2387"
           sodipodi:role="line">DS18B20</tspan></text>
    </g>
    <text
       xml:space="preserve"
       style="font-size:24px;font-style:normal;font-weight:normal;fill:#000000;fill-opacity:1;stroke:none;stroke-width:1px;stroke-linecap:butt;stroke-linejoin:miter;stroke-opacity:1;font-family:Bitstream Vera Sans"
       x="96"
       y="779.36218"
       id="text3165"><tspan
         sodipodi:role="line"
         id="tspan3167"
         x="96"
         y="779.36218">GND</tspan></text>
    <text
       xml:space="preserve"
       style="font-size:32px;font-style:normal;font-weight:normal;fill:#000000;fill-opacity:1;stroke:none;stroke-width:1px;stroke-linecap:butt;stroke-linejoin:miter;stroke-opacity:1;font-family:Bitstream Vera Sans"
       x="187"
       y="742.36218"
       id="text3169"><tspan
         sodipodi:role="line"
         x="187"
         y="742.36218"
         id="tspan3175" /><tspan
         sodipodi:role="line"
         x="187"
         y="782.36218"
         id="tspan3173">Pin 3</tspan></text>
    <rect
       y="759.36218"
       x="428"
       height="21"
       width="22"
       id="rect3181"
       style="fill:#000000;fill-opacity:1;stroke:none;stroke-width:3;stroke-opacity:1" />
    <text
       xml:space="preserve"
       style="font-size:32px;font-style:normal;font-weight:normal;fill:#000000;fill-opacity:1;stroke:none;stroke-width:1px;stroke-linecap:butt;stroke-linejoin:miter;stroke-opacity:1;font-family:Bitstream Vera Sans"
       x="362"
       y="781.36218"
       id="text3183"><tspan
         sodipodi:role="line"
         id="tspan3185"
         x="362"
         y="781.36218">+5V</tspan></text>
    <rect
       style="fill:none;fill-opacity:1;stroke:#000000;stroke-width:3;stroke-opacity:1"
       id="rect3189"
       width="383"
       height="189"
       x="88"
       y="727.36218" />
    <text
       xml:space="preserve"
       style="font-size:32px;font-style:normal;font-weight:normal;fill:#000000;fill-opacity:1;stroke:none;stroke-width:1px;stroke-linecap:butt;stroke-linejoin:miter;stroke-opacity:1;font-family:Bitstream Vera Sans"
       x="128"
       y="863.36218"
       id="text3191"><tspan
         sodipodi:role="line"
         id="tspan3193"
         x="128"
         y="863.36218">Arduino</tspan></text>
    <g
       id="g3207"
       transform="translate(14,4)">
      <rect
         y="638.12543"
         x="290.76321"
         height="29.473576"
         width="99.473572"
         id="rect3201"
         style="opacity:1;fill:none;fill-opacity:1;stroke:#000000;stroke-width:2.52642417;stroke-opacity:1" />
      <text
         id="text3203"
         y="659.36218"
         x="297"
         style="font-size:20px;font-style:normal;font-weight:normal;fill:#000000;fill-opacity:1;stroke:none;stroke-width:1px;stroke-linecap:butt;stroke-linejoin:miter;stroke-opacity:1;font-family:Bitstream Vera Sans"
         xml:space="preserve"><tspan
           y="659.36218"
           x="297"
           id="tspan3205"
           sodipodi:role="line">4.7k Ohm</tspan></text>
    </g>
    <path
       style="fill:none;fill-rule:evenodd;stroke:#000000;stroke-width:3;stroke-linecap:butt;stroke-linejoin:miter;stroke-opacity:1"
       d="M 445,772.36218 C 445,771.14546 445,759.3773 445,752.36218 C 445,743.89693 443.97185,738.30589 441,732.36218 C 437.6165,725.59519 435,716.87323 435,709.36218 C 435,706.39477 428.52419,694.41057 427,691.36218 C 423.42352,684.20923 422.80633,679.97484 419,672.36218 C 415.29919,664.96056 410.01978,659.87207 405,657.36218 C 404.40372,657.06404 403.66667,657.36218 403,657.36218"
       id="path3212" />
    <path
       id="path3230"
       d="M 265,772.36218 C 265,771.14546 265,759.3773 265,752.36218 C 265,743.89693 266.02815,738.30589 269,732.36218 C 272.3835,725.59519 275,716.87323 275,709.36218 C 275,706.39477 281.47581,694.41057 283,691.36218 C 286.57648,684.20923 287.19367,679.97484 291,672.36218 C 294.70081,664.96056 299.98022,659.87207 305,657.36218 C 305.59628,657.06404 306.33333,657.36218 307,657.36218"
       style="fill:none;fill-rule:evenodd;stroke:#000000;stroke-width:3;stroke-linecap:butt;stroke-linejoin:miter;stroke-opacity:1" />
    <path
       style="fill:none;fill-rule:evenodd;stroke:#000000;stroke-width:3;stroke-linecap:butt;stroke-linejoin:miter;stroke-opacity:1"
       d="M 442,766.36218 C 442,762.20483 456,749.07582 456,734.36218 C 456,719.65703 457.27017,708.01135 460,694.36218 C 462.06265,684.04894 448.3965,639.35344 444,628.36218 C 443.25722,626.50523 444,624.36218 444,622.36218 C 444,604.18116 435.15756,576.25608 428,558.36218 C 423.39206,546.84234 408.0103,540.37248 400,532.36218 C 396.58536,528.94755 388.01453,526.37672 384,522.36218"
       id="path3237" />
    <path
       id="path3253"
       d="M 266.21053,766.36218 C 266.21053,762.20483 252.21053,749.07582 252.21053,734.36218 C 252.21053,719.65703 250.94036,708.01135 248.21053,694.36218 C 246.14788,684.04894 259.81403,639.35344 264.21053,628.36218 C 264.95331,626.50523 264.21053,624.36218 264.21053,622.36218 C 264.21053,604.18116 273.05297,576.25608 280.21053,558.36218 C 284.81847,546.84234 300.20023,540.37248 308.21053,532.36218 C 311.62517,528.94755 320.196,526.37672 324.21053,522.36218"
       style="fill:none;fill-rule:evenodd;stroke:#000000;stroke-width:3;stroke-linecap:butt;stroke-linejoin:miter;stroke-opacity:1" />
    <rect
       style="fill:#000000;fill-opacity:1;stroke:none;stroke-width:3;stroke-opacity:1"
       id="rect3263"
       width="22"
       height="21"
       x="153"
       y="761.36218" />
    <path
       style="fill:none;fill-rule:evenodd;stroke:#000000;stroke-width:3;stroke-linecap:butt;stroke-linejoin:miter;stroke-opacity:1"
       d="M 252,523.36218 C 249.23356,522.4569 241.45766,530.17912 236,532.36218 C 229.97156,534.77356 226.34209,536.19114 220,539.36218 C 213.23351,542.74543 209.32347,558.03871 204,563.36218 C 200.49396,566.86822 199.77659,576.92072 198,581.36218 C 195.63724,587.26909 190.51277,592.72122 186,598.36218 C 180.58562,605.13015 178.99003,612.12465 174,618.36218 C 170.9863,622.1293 172,630.72429 172,636.36218 C 172,648.07406 170,658.05828 170,669.36218 C 170,677.02885 170,684.69552 170,692.36218 C 170,698.02885 170,703.69552 170,709.36218 C 170,714.61623 166,720.46969 166,726.36218 C 166,730.9199 164,735.5948 164,742.36218 C 164,748.02885 164,753.69552 164,759.36218 C 164,763.02225 164.15205,764.97038 165,768.36218"
       id="path3265" />
  </g>
</svg>
